/* XPM */
static char * bitcoin__[] = {
"32 32 563 2",
"  	c None",
". 	c #F2F2A0",
"+ 	c #ECED77",
"@ 	c #E8EA5E",
"# 	c #E6E851",
"$ 	c #E9E951",
"% 	c #D5E366",
"& 	c #C8E086",
"* 	c #DBEAAA",
"= 	c #F3F19F",
"- 	c #E4E94F",
"; 	c #DFE223",
"> 	c #DEE017",
", 	c #DFE11A",
"' 	c #DFE11C",
") 	c #E1E21B",
"! 	c #D4DD1E",
"~ 	c #A7CC2F",
"{ 	c #A5CC2E",
"] 	c #B0D031",
"^ 	c #89CB9A",
"/ 	c #97D9F9",
"( 	c #FEEDAA",
"_ 	c #FED32E",
": 	c #F8CD04",
"< 	c #EDD712",
"[ 	c #E2E021",
"} 	c #DEE325",
"| 	c #DFE325",
"1 	c #E0E224",
"2 	c #E3E323",
"3 	c #BBD534",
"4 	c #A9CE3B",
"5 	c #B1D031",
"6 	c #42B3AB",
"7 	c #09A3E9",
"8 	c #3AB5E6",
"9 	c #AFE1F5",
"0 	c #FEE068",
"a 	c #FDCB04",
"b 	c #FDCB08",
"c 	c #FECC10",
"d 	c #FFCC0F",
"e 	c #FBCF11",
"f 	c #F1D619",
"g 	c #E5DF21",
"h 	c #D1DD2A",
"i 	c #ACCF39",
"j 	c #A4CD43",
"k 	c #2CAED1",
"l 	c #1BA9E7",
"m 	c #16A7E1",
"n 	c #13A6E1",
"o 	c #71CAED",
"p 	c #FED947",
"q 	c #FDCA00",
"r 	c #FDCD0F",
"s 	c #FDCD10",
"t 	c #FECD10",
"u 	c #FDCE10",
"v 	c #F4D417",
"w 	c #E7DD20",
"x 	c #E0E324",
"y 	c #BBD42F",
"z 	c #89C662",
"A 	c #1BA9E6",
"B 	c #1EAAE3",
"C 	c #1EAAE2",
"D 	c #1DAAE2",
"E 	c #0FA4E0",
"F 	c #52BEE9",
"G 	c #FDD947",
"H 	c #F6D316",
"I 	c #E9DC1E",
"J 	c #D2DF24",
"K 	c #67BD8B",
"L 	c #15A8ED",
"M 	c #0FA5E0",
"N 	c #FEE069",
"O 	c #FECC0F",
"P 	c #FECD0F",
"Q 	c #FAD312",
"R 	c #EEDB15",
"S 	c #49B5AF",
"T 	c #17A8EE",
"U 	c #1FAAE5",
"V 	c #0EA4E0",
"W 	c #72CAED",
"X 	c #FEEEAE",
"Y 	c #FDCF0F",
"Z 	c #FFC10B",
"` 	c #DCAA3E",
" .	c #23A6A8",
"..	c #08ABBF",
"+.	c #16AAD2",
"@.	c #1EAAE1",
"#.	c #20AAE6",
"$.	c #1FAAE4",
"%.	c #B2E2F5",
"&.	c #FDD32A",
"*.	c #FDCC0D",
"=.	c #FDCC0C",
"-.	c #FDCE0F",
";.	c #FDCE0B",
">.	c #FDCA0C",
",.	c #FBBE13",
"'.	c #FFAF14",
").	c #E3A235",
"!.	c #98978D",
"~.	c #27A4A1",
"{.	c #00AAA2",
"].	c #00A8A2",
"^.	c #02A9AE",
"/.	c #0FAAC3",
"(.	c #19AAD7",
"_.	c #1FAAE3",
":.	c #17A7E3",
"<.	c #FEEB9F",
"[.	c #FDCC0E",
"}.	c #FDCF1C",
"|.	c #FDCF1B",
"1.	c #FDCF1A",
"2.	c #FDCC0B",
"3.	c #FDCC07",
"4.	c #FCC707",
"5.	c #FCC123",
"6.	c #FAB32D",
"7.	c #FCA417",
"8.	c #EBA124",
"9.	c #9A9B85",
"0.	c #8D9490",
"a.	c #2DA09A",
"b.	c #0CB0AC",
"c.	c #15B1AD",
"d.	c #03ABA5",
"e.	c #00A69E",
"f.	c #00AAA6",
"g.	c #07AAB3",
"h.	c #12AAC8",
"i.	c #1BAADB",
"j.	c #11A5E3",
"k.	c #A2DCF6",
"l.	c #FFFBEB",
"m.	c #FFF9E3",
"n.	c #FFF9E5",
"o.	c #FEECA5",
"p.	c #FCC532",
"q.	c #FDE0A4",
"r.	c #FEF4E9",
"s.	c #FEF8F0",
"t.	c #FFE9C2",
"u.	c #B9AF90",
"v.	c #808F8B",
"w.	c #A6ACA5",
"x.	c #C3DFDD",
"y.	c #E2F6F6",
"z.	c #EFFAF9",
"A.	c #D1F0EF",
"B.	c #61CAC8",
"C.	c #00A7A2",
"D.	c #00AAA4",
"E.	c #02AAA8",
"F.	c #04A7B7",
"G.	c #3FBBD4",
"H.	c #FFFFFF",
"I.	c #FFF8F3",
"J.	c #EDF1F4",
"K.	c #BEC4BE",
"L.	c #FBFBFB",
"M.	c #4AC3BF",
"N.	c #00AAA5",
"O.	c #00ABA2",
"P.	c #02A2A3",
"Q.	c #FFFEFC",
"R.	c #FDFEFE",
"S.	c #ABE3E1",
"T.	c #00A6A1",
"U.	c #008D9F",
"V.	c #95CED8",
"W.	c #FDE2BE",
"X.	c #FCD097",
"Y.	c #FCD29D",
"Z.	c #FCD49D",
"`.	c #FBCD9D",
" +	c #FCD09B",
".+	c #FDDB9B",
"++	c #FEFAF1",
"@+	c #FFFCF6",
"#+	c #FCCB79",
"$+	c #FDB234",
"%+	c #E7CE9E",
"&+	c #FCFEFF",
"*+	c #CECCC8",
"=+	c #6DACA6",
"-+	c #59CAC8",
";+	c #F7FCFC",
">+	c #C0E9E9",
",+	c #00A7A3",
"'+	c #00ACA6",
")+	c #049EA5",
"!+	c #00879F",
"~+	c #65BAC7",
"{+	c #FAB255",
"]+	c #F89009",
"^+	c #F89414",
"/+	c #F89714",
"(+	c #F2681A",
"_+	c #F16312",
":+	c #F9AC2E",
"<+	c #FFFCF5",
"[+	c #FCD38E",
"}+	c #FFA000",
"|+	c #DA9E30",
"1+	c #9BA193",
"2+	c #F8FAFB",
"3+	c #D8DBD8",
"4+	c #8E9187",
"5+	c #569A92",
"6+	c #DAF3F3",
"7+	c #A3E0DF",
"8+	c #00A6A2",
"9+	c #00ABA6",
"0+	c #01A7A6",
"a+	c #0791A4",
"b+	c #0089A0",
"c+	c #48ADBC",
"d+	c #F58A50",
"e+	c #F89719",
"f+	c #F89A21",
"g+	c #F89E21",
"h+	c #F58224",
"i+	c #F05828",
"j+	c #EF501C",
"k+	c #F7A174",
"l+	c #FFFDFB",
"m+	c #FFB538",
"n+	c #E9A226",
"o+	c #919685",
"p+	c #A3AEAC",
"q+	c #FEFEFE",
"r+	c #AEB5AF",
"s+	c #909389",
"t+	c #639C94",
"u+	c #15B4B0",
"v+	c #F0FAFA",
"w+	c #68CDCA",
"x+	c #00A5A1",
"y+	c #0599A5",
"z+	c #078DA4",
"A+	c #008DA2",
"B+	c #3BA3B5",
"C+	c #F16951",
"D+	c #F57A19",
"E+	c #F9A221",
"F+	c #F79122",
"G+	c #F15E28",
"H+	c #F05A28",
"I+	c #EF521D",
"J+	c #F9BFAF",
"K+	c #FFF0D3",
"L+	c #F3A623",
"M+	c #9F9B7D",
"N+	c #84928F",
"O+	c #C3C9C3",
"P+	c #F7F8F7",
"Q+	c #97A198",
"R+	c #93968D",
"S+	c #649890",
"T+	c #50C5C2",
"U+	c #FCFEFE",
"V+	c #2DB9B6",
"W+	c #00A9A3",
"X+	c #02A3A5",
"Y+	c #078EA4",
"Z+	c #0791A5",
"`+	c #00849D",
" @	c #4086A5",
".@	c #F26D61",
"+@	c #F04719",
"@@	c #F99821",
"#@	c #F36B27",
"$@	c #F05A26",
"%@	c #F05F2C",
"&@	c #FDE8E0",
"*@	c #F8DDA0",
"=@	c #AA9864",
"-@	c #899897",
";@	c #8C968C",
">@	c #E0E3E0",
",@	c #8C958C",
"'@	c #94988F",
")@	c #67978F",
"!@	c #96DBDA",
"~@	c #D0EFEE",
"{@	c #00A39F",
"]@	c #008E9F",
"^@	c #00889F",
"/@	c #00839B",
"(@	c #005680",
"_@	c #4782A3",
":@	c #F47587",
"<@	c #E6152C",
"[@	c #E44B2A",
"}@	c #F05B28",
"|@	c #F05520",
"1@	c #F37A50",
"2@	c #FFFEFD",
"3@	c #CAABA2",
"4@	c #83998E",
"5@	c #8C988E",
"6@	c #98A199",
"7@	c #C3C8C4",
"8@	c #889389",
"9@	c #91988F",
"0@	c #809B93",
"a@	c #D9EFEE",
"b@	c #75D0CD",
"c@	c #78CDCF",
"d@	c #7AC2CE",
"e@	c #7AC4CF",
"f@	c #7CB4C5",
"g@	c #78A2BB",
"h@	c #ABC8D6",
"i@	c #EE9FA8",
"j@	c #D10F28",
"k@	c #BD202B",
"l@	c #E75527",
"m@	c #F25D28",
"n@	c #EF521C",
"o@	c #F7A386",
"p@	c #FEF2F8",
"q@	c #EA2B86",
"r@	c #B95582",
"s@	c #87998C",
"t@	c #ADBBB2",
"u@	c #A7AFA8",
"v@	c #8B958C",
"w@	c #8B968D",
"x@	c #A2AAA2",
"y@	c #FEFDFD",
"z@	c #D31E32",
"A@	c #B21928",
"B@	c #C83A26",
"C@	c #F45F28",
"D@	c #EF511C",
"E@	c #F9C2AA",
"F@	c #FAC2DC",
"G@	c #ED0671",
"H@	c #F20774",
"I@	c #C83478",
"J@	c #C8BFC1",
"K@	c #F1F2F2",
"L@	c #929B93",
"M@	c #8E988F",
"N@	c #89948A",
"O@	c #B2B8B2",
"P@	c #DB4A5A",
"Q@	c #B01520",
"R@	c #AD2225",
"S@	c #E95428",
"T@	c #F25A1C",
"U@	c #F48370",
"V@	c #FDE7F3",
"W@	c #FCDCEB",
"X@	c #F04293",
"Y@	c #EB0871",
"Z@	c #EC1076",
"`@	c #EF0371",
" #	c #EF3E90",
".#	c #FCDFED",
"+#	c #EEFBF5",
"@#	c #B1BBB3",
"##	c #8B958B",
"$#	c #8F9990",
"%#	c #8D978E",
"&#	c #98A39B",
"*#	c #D8EDEB",
"=#	c #F1FAFA",
"-#	c #F1FBFA",
";#	c #F1FAFB",
">#	c #F2F7F9",
",#	c #F2F6F9",
"'#	c #F0F5F8",
")#	c #F3F7F9",
"!#	c #EBA1A9",
"~#	c #AD111A",
"{#	c #A61B24",
"]#	c #C93C24",
"^#	c #F54E3B",
"/#	c #EE1369",
"(#	c #EE1D80",
"_#	c #ED197B",
":#	c #EB0872",
"<#	c #EC1176",
"[#	c #ED0973",
"}#	c #EE197C",
"|#	c #C0618B",
"1#	c #889A8D",
"2#	c #8C9D91",
"3#	c #909990",
"4#	c #25A8A3",
"5#	c #18B3AF",
"6#	c #19B3AF",
"7#	c #1EA2AF",
"8#	c #2385A2",
"9#	c #276E94",
"0#	c #277095",
"a#	c #276F95",
"b#	c #19678E",
"c#	c #A7C5D4",
"d#	c #B63B41",
"e#	c #A7171C",
"f#	c #AF2229",
"g#	c #D5196B",
"h#	c #E40F82",
"i#	c #E80D76",
"j#	c #EB0D74",
"k#	c #EE1075",
"l#	c #ED1075",
"m#	c #ED1076",
"n#	c #ED0C74",
"o#	c #F00673",
"p#	c #CF3B7F",
"q#	c #95908F",
"r#	c #8AA192",
"s#	c #95988F",
"t#	c #23A5A0",
"u#	c #00A0A5",
"v#	c #057B99",
"w#	c #095C86",
"x#	c #0A5B86",
"y#	c #0A5C86",
"z#	c #015A84",
"A#	c #267999",
"B#	c #E2B3B5",
"C#	c #A61418",
"D#	c #B11E35",
"E#	c #B81F4E",
"F#	c #C41B6D",
"G#	c #CF1588",
"H#	c #D21584",
"I#	c #D81480",
"J#	c #DF137C",
"K#	c #E51179",
"L#	c #EA1077",
"M#	c #EE0F75",
"N#	c #F30774",
"O#	c #E22079",
"P#	c #A5798A",
"Q#	c #89A292",
"R#	c #95998F",
"S#	c #31A59F",
"T#	c #00ACA9",
"U#	c #09859D",
"V#	c #0F5E89",
"W#	c #0F5F88",
"X#	c #0E648B",
"Y#	c #0C6C8E",
"Z#	c #006C8C",
"`#	c #ACD0DA",
" $	c #CB7378",
".$	c #B11036",
"+$	c #B9204A",
"@$	c #B82147",
"#$	c #C11C64",
"$$	c #CC1687",
"%$	c #CC1688",
"&$	c #CB1686",
"*$	c #CD1685",
"=$	c #D01584",
"-$	c #D61481",
";$	c #DC137E",
">$	c #E3127B",
",$	c #E81178",
"'$	c #F00B75",
")$	c #EF0F75",
"!$	c #BC5A83",
"~$	c #949D8F",
"{$	c #34AB9F",
"]$	c #0190A1",
"^$	c #0F608A",
"/$	c #0F658B",
"($	c #0D6F90",
"_$	c #0C7492",
":$	c #006B8B",
"<$	c #67A8BB",
"[$	c #C95474",
"}$	c #B5113E",
"|$	c #B82146",
"1$	c #BF1D5B",
"2$	c #CC1782",
"3$	c #CE1688",
"4$	c #CC1685",
"5$	c #CC1686",
"6$	c #CE1684",
"7$	c #D31583",
"8$	c #DA117F",
"9$	c #E50A7B",
"0$	c #D23D80",
"a$	c #4E8B96",
"b$	c #037091",
"c$	c #0D6E8F",
"d$	c #0C7493",
"e$	c #006A8B",
"f$	c #4494AC",
"g$	c #C95374",
"h$	c #B5113D",
"i$	c #B91F49",
"j$	c #BC1F53",
"k$	c #CA187C",
"l$	c #CE1589",
"m$	c #D80D83",
"n$	c #47578D",
"o$	c #037793",
"p$	c #0B7291",
"q$	c #00698B",
"r$	c #4493AB",
"s$	c #D3728D",
"t$	c #B61541",
"u$	c #B71844",
"v$	c #BA204D",
"w$	c #C71974",
"x$	c #CE1689",
"y$	c #D51285",
"z$	c #A72888",
"A$	c #0B7492",
"B$	c #036E8E",
"C$	c #006C8D",
"D$	c #66A6BA",
"E$	c #E6B0BF",
"F$	c #C23C60",
"G$	c #B5123F",
"H$	c #B61741",
"I$	c #B81F48",
"J$	c #C41B6B",
"K$	c #CD1686",
"L$	c #D81184",
"M$	c #564E8C",
"N$	c #00738F",
"O$	c #2B85A0",
"P$	c #A9CDD9",
"Q$	c #E19FB1",
"R$	c #C74A6C",
"S$	c #B81E48",
"T$	c #B4133C",
"U$	c #BD0F57",
"V$	c #CA0C7D",
"W$	c #CB0D82",
"X$	c #CB0D80",
"Y$	c #CB0B7F",
"Z$	c #D0067E",
"`$	c #AE1680",
" %	c #136E91",
".%	c #388FA7",
"+%	c #96C3D0",
"@%	c #E09EB0",
"#%	c #D2758B",
"$%	c #D15889",
"%%	c #D7469E",
"&%	c #D8469F",
"*%	c #DA53A5",
"=%	c #E46DB3",
"-%	c #CFA7CC",
"                        . + @ # $ % & *                         ",
"                  = - ; > > , ' ) ! ~ { ] ^ /                   ",
"              ( _ : < [ } | 1 1 1 2 3 4 5 6 7 8 9               ",
"            0 a b c d e f g | | 1 2 h i j k l m n o             ",
"          p q r s s s t d u v w | | x y z A B C D E F           ",
"        G q s s s s s s s s d t H I 2 J K L C C C C M F         ",
"      N q s s s s s s s s s s s O P Q R S T U B C C C V W       ",
"    X a r s s s s s s s s s s u Y s Z `  ...+.@.#.$.C D n %.    ",
"    &.a *.=.=.=.=.=.*.r s -.;.>.,.'.).!.~.{.].^./.(._.#.:.8     ",
"  <.[.}.|.|.|.|.|.|.1.2.3.4.5.6.7.8.9.0.a.b.c.d.e.f.g.h.i.j.k.  ",
"  l.m.n.n.n.n.n.n.n.m.o.p.q.r.s.t.u.v.w.x.y.z.A.B.C.D.{.E.F.G.  ",
"  H.H.H.H.H.H.H.H.H.H.H.I.H.H.H.H.J.K.L.H.H.H.H.H.M.C.f.N.O.P.  ",
"H.H.H.H.H.H.H.H.H.H.H.H.H.Q.H.H.H.H.H.H.R.H.H.H.H.S.T.f.f.f.U.V.",
"W.X.Y.Y.Z.`. +.+++H.H.@+#+$+%+&+H.H.H.*+=+-+;+H.H.>+,+f.'+)+!+~+",
"{+]+^+^+/+(+_+:+<+H.H.[+}+|+1+2+H.H.3+4+5+f.6+H.H.7+8+9+0+a+b+c+",
"d+e+f+g+h+i+j+k+H.H.l+m+n+o+p+q+H.H.r+s+t+u+v+H.H.w+x+'+y+z+A+B+",
"C+D+E+F+G+H+I+J+H.H.K+L+M+N+O+H.H.P+Q+R+S+T+H.H.U+V+W+X+Y+Z+`+ @",
".@+@@@#@i+$@%@&@H.H.*@=@-@;@>@H.H.>@,@'@)@!@H.H.~@T.{@]@^@/@(@_@",
":@<@[@G+}@|@1@2@H.H.3@4@5@6@P+H.H.7@8@9@0@a@H.H.A.b@c@d@e@f@g@h@",
"i@j@k@l@m@n@o@H.H.p@q@r@s@t@H.H.H.u@v@w@x@y@H.H.H.H.H.H.H.H.H.H.",
"  z@A@B@C@D@E@H.H.F@G@H@I@J@H.H.K@L@M@N@O@H.H.H.H.H.H.H.H.H.H.  ",
"  P@Q@R@S@T@U@V@W@X@Y@Z@`@ #.#+#@###$#%#&#*#=#-#=#;#>#,#,#'#)#  ",
"  !#~#{#]#^#/#(#_#:#<#Z@Z@[#}#|#1#2#$#3#%#4#5#6#7#8#9#0#a#b#c#  ",
"    d#e#f#g#h#i#j#k#k#l#m#Z@n#o#p#q#r#$#s#t#N.u#v#w#x#y#z#A#    ",
"    B#C#D#E#F#G#H#I#J#K#L#m#k#M#N#O#P#Q#R#S#T#U#V#W#X#Y#Z#`#    ",
"       $.$+$@$#$$$%$&$*$=$-$;$>$,$'$)$!$~${$]$^$/$($_$:$<$      ",
"        [$}$+$|$1$2$3$*$4$5$&$5$6$7$8$9$0$a$b$c$d$d$e$f$        ",
"          g$h$i$@$j$k$l$*$*$*$*$*$5$&$5$m$n$o$_$p$q$r$          ",
"            s$t$u$@$v$w$x$*$*$*$*$*$*$y$z$_$A$B$C$D$            ",
"              E$F$G$H$I$J$3$K$*$*$*$*$L$M$N$e$O$P$              ",
"                  Q$R$S$T$U$V$W$X$Y$Z$`$ %.%+%                  ",
"                        @%#%$%%%&%*%=%-%                        "};
