/* XPM */
static char * bitcoin__[] = {
"16 16 187 2",
"  	c None",
". 	c #EAF28A",
"+ 	c #E2EC55",
"@ 	c #E8E735",
"# 	c #D9E03B",
"$ 	c #BFD95D",
"% 	c #BFE0A7",
"& 	c #FEE587",
"* 	c #FBCA08",
"= 	c #EDCE00",
"- 	c #E0DA00",
"; 	c #DBE51A",
"> 	c #E0E619",
", 	c #C8D500",
"' 	c #4CAF63",
") 	c #029DFC",
"! 	c #8BD3F1",
"~ 	c #FEDF64",
"{ 	c #FDC000",
"] 	c #FEC800",
"^ 	c #FFC90F",
"/ 	c #FFCB0E",
"( 	c #F3D216",
"_ 	c #F1E219",
": 	c #E9EB0C",
"< 	c #4EB8B6",
"[ 	c #009BFF",
"} 	c #0094DB",
"| 	c #6DC8EC",
"1 	c #FEE47C",
"2 	c #FDBC00",
"3 	c #FDC800",
"4 	c #FDCA00",
"5 	c #FDCB06",
"6 	c #FECD0B",
"7 	c #FFCA00",
"8 	c #FFCF00",
"9 	c #F7C718",
"0 	c #0FA4BE",
"a 	c #00A3E7",
"b 	c #1BA8EB",
"c 	c #0094E7",
"d 	c #97D8F5",
"e 	c #FDCB09",
"f 	c #FDCB0A",
"g 	c #FDCF1A",
"h 	c #FDCF19",
"i 	c #FDC600",
"j 	c #FFC719",
"k 	c #F3A60A",
"l 	c #997E5F",
"m 	c #0CA2AD",
"n 	c #09B1AA",
"o 	c #00A2B1",
"p 	c #04A2CD",
"q 	c #0DA4E3",
"r 	c #FFFFFF",
"s 	c #FFFCEF",
"t 	c #FEF4D0",
"u 	c #FFFAD8",
"v 	c #FFFDFD",
"w 	c #DED2CD",
"x 	c #B3C2CB",
"y 	c #EDFAF5",
"z 	c #60CBBD",
"A 	c #00A092",
"B 	c #00979E",
"C 	c #82D2DD",
"D 	c #FEF2DA",
"E 	c #FDE9D9",
"F 	c #FEEDDD",
"G 	c #FEEDD8",
"H 	c #FFE4BE",
"I 	c #F6F0E6",
"J 	c #BCDEDB",
"K 	c #FAFDFE",
"L 	c #00AAA2",
"M 	c #00938D",
"N 	c #3AA8B5",
"O 	c #F89A28",
"P 	c #FAA000",
"Q 	c #F15C00",
"R 	c #F2712A",
"S 	c #FFEDA9",
"T 	c #C27500",
"U 	c #C1C9C7",
"V 	c #ABA8A0",
"W 	c #08887F",
"X 	c #F8FFFF",
"Y 	c #DFF5F4",
"Z 	c #00A69D",
"` 	c #00909D",
" .	c #1A93AC",
"..	c #F76A33",
"+.	c #FC8910",
"@.	c #EC3300",
"#.	c #F58978",
"$.	c #D6D67F",
"%.	c #737F64",
"&.	c #E7F2FF",
"*.	c #7E867B",
"=.	c #70AFA9",
"-.	c #6ED3CD",
";.	c #00878A",
">.	c #007190",
",.	c #127093",
"'.	c #DE4561",
").	c #DC1F09",
"!.	c #F54D08",
"~.	c #FDEACD",
"{.	c #AD6586",
"].	c #82ACA2",
"^.	c #E7E5E5",
"/.	c #627467",
"(.	c #D5D5D1",
"_.	c #D9F6F2",
":.	c #C9EBEB",
"<.	c #CADFE8",
"[.	c #CED8E3",
"}.	c #DB7F97",
"|.	c #AA0000",
"1.	c #F35711",
"2.	c #FFEED3",
"3.	c #FCC5ED",
"4.	c #EA0058",
"5.	c #E64F94",
"6.	c #F2FAF6",
"7.	c #A0D1B7",
"8.	c #70796E",
"9.	c #CDD1CE",
"0.	c #F3FFFC",
"a.	c #9C0D0A",
"b.	c #C21725",
"c.	c #F51E89",
"d.	c #EE067B",
"e.	c #F30A6D",
"f.	c #FF006E",
"g.	c #EB2079",
"h.	c #988186",
"i.	c #92B592",
"j.	c #52A99A",
"k.	c #10B9B5",
"l.	c #1C819E",
"m.	c #135482",
"n.	c #10648B",
"o.	c #D59895",
"p.	c #9A0011",
"q.	c #C00465",
"r.	c #D60A88",
"s.	c #DA1489",
"t.	c #DC137B",
"u.	c #EE006D",
"v.	c #F50072",
"w.	c #D06482",
"x.	c #54B699",
"y.	c #008698",
"z.	c #004A7C",
"A.	c #003867",
"B.	c #77B1C3",
"C.	c #D16F88",
"D.	c #A1000E",
"E.	c #B60A4E",
"F.	c #CB1992",
"G.	c #CB1692",
"H.	c #C81986",
"I.	c #D50B82",
"J.	c #FF007A",
"K.	c #934E8C",
"L.	c #007189",
"M.	c #004E75",
"N.	c #62A9BB",
"O.	c #DB8DA0",
"P.	c #AF122E",
"Q.	c #AC0029",
"R.	c #C3006B",
"S.	c #CD0787",
"T.	c #CD077F",
"U.	c #D60074",
"V.	c #1B2875",
"W.	c #00778B",
"X.	c #86B9C8",
"Y.	c #D58790",
"Z.	c #C74F6F",
"`.	c #CF2C89",
" +	c #DF2693",
".+	c #BE53A0",
"++	c #74B6C4",
"          . + @ # $ %           ",
"      & * = - ; > , ' ) !       ",
"    ~ { ] ^ / ( _ : < [ } |     ",
"  1 2 3 4 5 6 7 8 9 0 a b c d   ",
"  e f g h 5 i j k l m n o p q   ",
"r r r r s t u v w x r y z A B C ",
"D E F G r r H I r r J r K L M N ",
"O P Q R r S T U r V W X Y Z `  .",
"..+.@.#.r $.%.&.r *.=.r -.;.>.,.",
"'.).!.~.r {.].r ^./.(.r _.:.<.[.",
"}.|.1.2.3.4.5.6.7.8.9.0.r r r r ",
"  a.b.c.d.e.f.g.h.i.j.k.l.m.n.  ",
"  o.p.q.r.s.t.u.v.w.x.y.z.A.B.  ",
"    C.D.E.F.G.H.I.J.K.L.M.N.    ",
"      O.P.Q.R.S.T.U.V.W.X.      ",
"          Y.Z.`. +.+++          "};
