<?xml version="1.0" encoding="UTF-8" standalone="no"?>
<!-- Created with Inkscape (http://www.inkscape.org/) -->

<svg
   xmlns:dc="http://purl.org/dc/elements/1.1/"
   xmlns:cc="http://creativecommons.org/ns#"
   xmlns:rdf="http://www.w3.org/1999/02/22-rdf-syntax-ns#"
   xmlns:svg="http://www.w3.org/2000/svg"
   xmlns="http://www.w3.org/2000/svg"
   xmlns:sodipodi="http://sodipodi.sourceforge.net/DTD/sodipodi-0.dtd"
   xmlns:inkscape="http://www.inkscape.org/namespaces/inkscape"
   id="svg2"
   version="1.1"
   inkscape:version="0.48.5 r10040"
   width="1024"
   height="1024"
   xml:space="preserve"
   sodipodi:docname="Myriad.ai"><metadata
     id="metadata8"><rdf:RDF><cc:Work
         rdf:about=""><dc:format>image/svg+xml</dc:format><dc:type
           rdf:resource="http://purl.org/dc/dcmitype/StillImage" /><dc:title></dc:title></cc:Work></rdf:RDF></metadata><defs
     id="defs6"><clipPath
       clipPathUnits="userSpaceOnUse"
       id="clipPath16"><path
         d="m 1.282,202 1099.219,0 0,540 -1099.219,0 0,-540 z"
         id="path18"
         inkscape:connector-curvature="0" /></clipPath><radialGradient
       fx="0"
       fy="0"
       cx="0"
       cy="0"
       r="1"
       gradientUnits="userSpaceOnUse"
       gradientTransform="matrix(549.99548,0,0,-270.00269,551.28271,472)"
       spreadMethod="pad"
       id="radialGradient24"><stop
         style="stop-opacity:1;stop-color:#ffffff"
         offset="0"
         id="stop26" /><stop
         style="stop-opacity:1;stop-color:#e6e7e8"
         offset="1"
         id="stop28" /></radialGradient><clipPath
       clipPathUnits="userSpaceOnUse"
       id="clipPath38"><path
         d="m 0,1282.998 1100,0 0,972.002 -1100,0 0,-972.002 z"
         id="path40"
         inkscape:connector-curvature="0" /></clipPath><radialGradient
       fx="0"
       fy="0"
       cx="0"
       cy="0"
       r="1"
       gradientUnits="userSpaceOnUse"
       gradientTransform="matrix(550.01733,0,0,-485.9866,549.99902,1768.999)"
       spreadMethod="pad"
       id="radialGradient46"><stop
         style="stop-opacity:1;stop-color:#ffffff"
         offset="0"
         id="stop48" /><stop
         style="stop-opacity:1;stop-color:#e6e7e8"
         offset="1"
         id="stop50" /></radialGradient><clipPath
       clipPathUnits="userSpaceOnUse"
       id="clipPath60"><path
         d="m 374.777,1889.598 c 0,-96.774 78.45,-175.222 175.225,-175.222 l 0,0 c 96.77,0 175.221,78.448 175.221,175.222 l 0,0 c 0,96.771 -78.451,175.222 -175.221,175.222 l 0,0 c -96.775,0 -175.225,-78.451 -175.225,-175.222"
         id="path62"
         inkscape:connector-curvature="0" /></clipPath><clipPath
       clipPathUnits="userSpaceOnUse"
       id="clipPath164"><path
         d="m 0,2255 1100.501,0 0,-2255 L 0,0 0,2255 z"
         id="path166"
         inkscape:connector-curvature="0" /></clipPath><clipPath
       clipPathUnits="userSpaceOnUse"
       id="clipPath184"><path
         d="m 124.283,472 c 0,-73.638 59.697,-133.333 133.336,-133.333 l 0,0 c 73.637,0 133.333,59.695 133.333,133.333 l 0,0 c 0,73.638 -59.696,133.334 -133.333,133.334 l 0,0 C 183.98,605.334 124.283,545.638 124.283,472"
         id="path186"
         inkscape:connector-curvature="0" /></clipPath><clipPath
       clipPathUnits="userSpaceOnUse"
       id="clipPath280"><path
         d="m 0,2255 1100.501,0 0,-2255 L 0,0 0,2255 z"
         id="path282"
         inkscape:connector-curvature="0" /></clipPath><clipPath
       clipPathUnits="userSpaceOnUse"
       id="clipPath292"><path
         d="m 124.283,472 c 0,-73.638 59.697,-133.333 133.336,-133.333 l 0,0 c 73.637,0 133.333,59.695 133.333,133.333 l 0,0 c 0,73.638 -59.696,133.334 -133.333,133.334 l 0,0 C 183.98,605.334 124.283,545.638 124.283,472"
         id="path294"
         inkscape:connector-curvature="0" /></clipPath><clipPath
       clipPathUnits="userSpaceOnUse"
       id="clipPath312"><path
         d="m 123,1011 c 0,-73.638 59.696,-133.334 133.336,-133.334 l 0,0 c 73.636,0 133.332,59.696 133.332,133.334 l 0,0 c 0,73.637 -59.696,133.334 -133.332,133.334 l 0,0 C 182.696,1144.334 123,1084.637 123,1011"
         id="path314"
         inkscape:connector-curvature="0" /></clipPath><clipPath
       clipPathUnits="userSpaceOnUse"
       id="clipPath408"><path
         d="m 0,2255 1100.501,0 0,-2255 L 0,0 0,2255 z"
         id="path410"
         inkscape:connector-curvature="0" /></clipPath><clipPath
       clipPathUnits="userSpaceOnUse"
       id="clipPath420"><path
         d="m 123,1011 c 0,-73.638 59.696,-133.334 133.336,-133.334 l 0,0 c 73.636,0 133.332,59.696 133.332,133.334 l 0,0 c 0,73.637 -59.696,133.334 -133.332,133.334 l 0,0 C 182.696,1144.334 123,1084.637 123,1011"
         id="path422"
         inkscape:connector-curvature="0" /></clipPath><clipPath
       clipPathUnits="userSpaceOnUse"
       id="clipPath440"><path
         d="m 0,2255 1100.501,0 0,-2255 L 0,0 0,2255 z"
         id="path442"
         inkscape:connector-curvature="0" /></clipPath><clipPath
       clipPathUnits="userSpaceOnUse"
       id="clipPath452"><path
         d="m 396.739,101 c 0,-24.604 19.946,-44.548 44.55,-44.548 l 0,0 c 24.603,0 44.549,19.944 44.549,44.548 l 0,0 c 0,24.603 -19.946,44.549 -44.549,44.549 l 0,0 c -24.604,0 -44.55,-19.946 -44.55,-44.549"
         id="path454"
         inkscape:connector-curvature="0" /></clipPath><clipPath
       clipPathUnits="userSpaceOnUse"
       id="clipPath464"><path
         d="m 0,2255 1100.501,0 0,-2255 L 0,0 0,2255 z"
         id="path466"
         inkscape:connector-curvature="0" /></clipPath><clipPath
       clipPathUnits="userSpaceOnUse"
       id="clipPath476"><path
         d="m 818.338,101 c 0,-24.604 19.945,-44.548 44.55,-44.548 l 0,0 c 24.604,0 44.549,19.944 44.549,44.548 l 0,0 c 0,24.603 -19.945,44.549 -44.549,44.549 l 0,0 c -24.605,0 -44.55,-19.946 -44.55,-44.549"
         id="path478"
         inkscape:connector-curvature="0" /></clipPath><clipPath
       clipPathUnits="userSpaceOnUse"
       id="clipPath488"><path
         d="m 0,2255 1100.501,0 0,-2255 L 0,0 0,2255 z"
         id="path490"
         inkscape:connector-curvature="0" /></clipPath></defs><sodipodi:namedview
     pagecolor="#ffffff"
     bordercolor="#666666"
     borderopacity="1"
     objecttolerance="10"
     gridtolerance="10"
     guidetolerance="10"
     inkscape:pageopacity="0"
     inkscape:pageshadow="2"
     inkscape:window-width="1920"
     inkscape:window-height="1025"
     id="namedview4"
     showgrid="false"
     inkscape:zoom="0.35355339"
     inkscape:cx="-180.1663"
     inkscape:cy="1132.8631"
     inkscape:window-x="-2"
     inkscape:window-y="-3"
     inkscape:window-maximized="1"
     inkscape:current-layer="g10" /><g
     id="g10"
     inkscape:groupmode="layer"
     inkscape:label="Myriad"
     transform="matrix(1.25,0,0,-1.25,0,1024)"><g
       id="g56"
       transform="matrix(2.1654857,0,0,2.1654857,-782.39696,-3686.5182)"><g
         id="g58"
         clip-path="url(#clipPath60)"><g
           id="g64"
           transform="translate(594.0039,1991.8096)"><path
             d="M 0,0 16.395,-223.786 122.563,-45.798 0,0 z"
             style="fill:#00aaa6;fill-opacity:1;fill-rule:nonzero;stroke:none"
             id="path66"
             inkscape:connector-curvature="0" /></g><g
           id="g68"
           transform="translate(374.7783,1852.8545)"><path
             d="M 0,0 26.667,9.627 11.575,-138.479 0,-138.479 0,0 z"
             style="fill:#d21f33;fill-opacity:1;fill-rule:nonzero;stroke:none"
             id="path70"
             inkscape:connector-curvature="0" /></g><g
           id="g72"
           transform="translate(543.002,1714.3755)"><path
             d="M 0,0 -114.493,94.5 -151.966,0 0,0 z"
             style="fill:#b9204a;fill-opacity:1;fill-rule:nonzero;stroke:none"
             id="path74"
             inkscape:connector-curvature="0" /></g><g
           id="g76"
           transform="translate(586.7183,1714.3755)"><path
             d="M 0,0 -43.716,0 -158.209,94.5 23.68,53.646 0,0 z"
             style="fill:#cd1685;fill-opacity:1;fill-rule:nonzero;stroke:none"
             id="path78"
             inkscape:connector-curvature="0" /></g><g
           id="g80"
           transform="translate(725.2227,1714.3755)"><path
             d="m 0,0 -138.504,0 23.68,53.646 L 0,105.429 0,0 z"
             style="fill:#0c7392;fill-opacity:1;fill-rule:nonzero;stroke:none"
             id="path82"
             inkscape:connector-curvature="0" /></g><g
           id="g84"
           transform="translate(725.2227,1895.5293)"><path
             d="M 0,0 -114.824,-127.506 0,-75.723 0,0 z"
             style="fill:#0f6089;fill-opacity:1;fill-rule:nonzero;stroke:none"
             id="path86"
             inkscape:connector-curvature="0" /></g><g
           id="g88"
           transform="translate(486.7959,1860.6616)"><path
             d="M 0,0 123.603,-92.638 109.291,129.065 0,0 z"
             style="fill:#8f9990;fill-opacity:1;fill-rule:nonzero;stroke:none"
             id="path90"
             inkscape:connector-curvature="0" /></g><g
           id="g92"
           transform="translate(439.9575,1916.8672)"><path
             d="m 0,0 -38.512,-54.385 27.063,-53.604 58.287,51.783 L 0,0 z"
             style="fill:#f05b28;fill-opacity:1;fill-rule:nonzero;stroke:none"
             id="path94"
             inkscape:connector-curvature="0" /></g><g
           id="g96"
           transform="translate(374.7783,1905.4175)"><path
             d="M 0,0 26.667,-42.936 0,-34.348 0,0 z"
             style="fill:#ee4423;fill-opacity:1;fill-rule:nonzero;stroke:none"
             id="path98"
             inkscape:connector-curvature="0" /></g><g
           id="g100"
           transform="translate(374.7783,1944.71)"><path
             d="M 0,0 65.179,-27.843 26.667,-82.228 0,-39.292 0,0 z"
             style="fill:#f89a21;fill-opacity:1;fill-rule:nonzero;stroke:none"
             id="path102"
             inkscape:connector-curvature="0" /></g><g
           id="g104"
           transform="translate(615.0815,2064.8198)"><path
             d="M 0,0 -18.995,-75.093 -51.263,0 0,0 z"
             style="fill:#abcf3a;fill-opacity:1;fill-rule:nonzero;stroke:none"
             id="path106"
             inkscape:connector-curvature="0" /></g><g
           id="g108"
           transform="translate(680.1367,2064.8198)"><path
             d="M 0,0 45.086,-50.372 45.086,0 0,0 z"
             style="fill:#39b7e9;fill-opacity:1;fill-rule:nonzero;stroke:none"
             id="path110"
             inkscape:connector-curvature="0" /></g><g
           id="g112"
           transform="translate(596.0864,1989.7271)"><path
             d="m 0,0 -149.623,67.917 -71.685,-66.095 0,-46.839 65.179,-27.843 L 0,0 z"
             style="fill:#fdcd11;fill-opacity:1;fill-rule:nonzero;stroke:none"
             id="path114"
             inkscape:connector-curvature="0" /></g><g
           id="g116"
           transform="translate(439.9575,1916.8672)"><path
             d="M 0,0 46.838,-56.206 156.129,72.86 0,0 z"
             style="fill:#f9a71c;fill-opacity:1;fill-rule:nonzero;stroke:none"
             id="path118"
             inkscape:connector-curvature="0" /></g><g
           id="g120"
           transform="translate(374.7783,1871.0698)"><path
             d="M 0,0 0,-18.215 26.667,-8.588 0,0 z"
             style="fill:#ed203d;fill-opacity:1;fill-rule:nonzero;stroke:none"
             id="path122"
             inkscape:connector-curvature="0" /></g><g
           id="g124"
           transform="translate(386.3535,1714.3755)"><path
             d="M 0,0 15.092,148.104 42.155,94.5 4.683,0 0,0 z"
             style="fill:#ab1f25;fill-opacity:1;fill-rule:nonzero;stroke:none"
             id="path126"
             inkscape:connector-curvature="0" /></g><g
           id="g128"
           transform="translate(428.5088,1808.8784)"><path
             d="M 0,0 58.287,51.783 181.89,-40.855 0,0 z"
             style="fill:#ec1076;fill-opacity:1;fill-rule:nonzero;stroke:none"
             id="path130"
             inkscape:connector-curvature="0" /></g><g
           id="g132"
           transform="translate(725.2227,1895.5293)"><path
             d="M 0,0 -114.824,-127.506 0,65.314 0,0 z"
             style="fill:#078fa4;fill-opacity:1;fill-rule:nonzero;stroke:none"
             id="path134"
             inkscape:connector-curvature="0" /></g><g
           id="g136"
           transform="translate(725.2227,2014.4478)"><path
             d="m 0,0 0,-53.604 -8.656,-14.833 -120.48,43.716 18.995,75.093 65.055,0 L 0,0 z"
             style="fill:#1eaae2;fill-opacity:1;fill-rule:nonzero;stroke:none"
             id="path138"
             inkscape:connector-curvature="0" /></g><g
           id="g140"
           transform="translate(446.4639,2057.644)"><path
             d="m 0,0 4.944,7.176 -12.839,0 L 0,0 z"
             style="fill:#f4ea26;fill-opacity:1;fill-rule:nonzero;stroke:none"
             id="path142"
             inkscape:connector-curvature="0" /></g><g
           id="g144"
           transform="translate(446.4639,2057.644)"><path
             d="m 0,0 -7.895,7.176 -63.791,0 0,-73.271 L 0,0 z"
             style="fill:#fbd800;fill-opacity:1;fill-rule:nonzero;stroke:none"
             id="path146"
             inkscape:connector-curvature="0" /></g><g
           id="g148"
           transform="translate(563.8184,2064.8198)"><path
             d="M 0,0 -112.411,0 -117.354,-7.176 32.268,-75.093 0,0 z"
             style="fill:#e0e224;fill-opacity:1;fill-rule:nonzero;stroke:none"
             id="path150"
             inkscape:connector-curvature="0" /></g><g
           id="g152"
           transform="translate(643.4385,1860.6743)"><path
             d="m 0,0 8.873,33.194 c 2.136,8.069 4.271,17.085 4.271,24.204 0,23.019 -13.999,37.02 -36.78,37.02 -19.222,0 -34.409,-9.493 -45.562,-23.02 -4.984,14.002 -16.374,23.02 -33.697,23.02 -14.237,0 -24.678,-7.594 -33.695,-15.663 0,8.069 -5.696,14.713 -16.138,14.713 -0.122,0 -0.241,-0.013 -0.365,-0.015 l -115.569,0 0,-36.57 90.165,0 -18.604,-69.724 c -4.033,-14.95 2.373,-23.73 14.475,-23.73 9.492,0 17.085,6.644 20.17,18.272 l 14.713,54.579 c 4.034,15.186 12.815,25.39 27.051,25.39 11.154,0 16.848,-5.458 16.848,-15.662 0,-3.083 -0.712,-7.83 -1.66,-11.389 l -12.813,-47.46 c -4.035,-14.95 2.371,-23.73 14.473,-23.73 9.492,0 17.084,6.644 20.172,18.272 L -68.96,36.28 c 4.033,15.186 12.812,25.39 27.05,25.39 11.153,0 16.849,-5.458 16.849,-15.662 0,-3.083 -0.71,-7.83 -1.663,-11.389 l -12.812,-47.46 c -3.896,-14.447 1.954,-23.13 13.274,-23.699 l 0,-0.031 108.046,0 L 81.784,0 0,0 z"
             style="fill:#ffffff;fill-opacity:1;fill-rule:nonzero;stroke:none"
             id="path154"
             inkscape:connector-curvature="0" /></g><g
           id="g156"
           transform="translate(643.4385,1860.6743)"><path
             d="m 0,0 8.873,33.194 c 2.136,8.069 4.271,17.085 4.271,24.204 0,23.019 -13.999,37.02 -36.78,37.02 -19.222,0 -34.409,-9.493 -45.562,-23.02 -4.984,14.002 -16.374,23.02 -33.697,23.02 -14.237,0 -24.678,-7.594 -33.695,-15.663 0,8.069 -5.696,14.713 -16.138,14.713 -0.122,0 -0.241,-0.013 -0.365,-0.015 l -115.569,0 0,-36.57 90.165,0 -18.604,-69.724 c -4.033,-14.95 2.373,-23.73 14.475,-23.73 9.492,0 17.085,6.644 20.17,18.272 l 14.713,54.579 c 4.034,15.186 12.815,25.39 27.051,25.39 11.154,0 16.848,-5.458 16.848,-15.662 0,-3.083 -0.712,-7.83 -1.66,-11.389 l -12.813,-47.46 c -4.035,-14.95 2.371,-23.73 14.473,-23.73 9.492,0 17.084,6.644 20.172,18.272 L -68.96,36.28 c 4.033,15.186 12.812,25.39 27.05,25.39 11.153,0 16.849,-5.458 16.849,-15.662 0,-3.083 -0.71,-7.83 -1.663,-11.389 l -12.812,-47.46 c -3.896,-14.447 1.954,-23.13 13.274,-23.699 l 0,-0.031 108.046,0 L 81.784,0 0,0 z"
             style="fill:none;stroke:#ffffff;stroke-width:2;stroke-linecap:butt;stroke-linejoin:miter;stroke-miterlimit:10;stroke-opacity:1;stroke-dasharray:none"
             id="path158"
             inkscape:connector-curvature="0" /></g></g></g><g
       id="g160"
       transform="matrix(2.1654857,0,0,2.1654857,-782.39631,-3686.5182)"><g
         id="g162"
         clip-path="url(#clipPath164)"><g
           id="g168"
           transform="translate(725.2227,1889.5977)"><path
             d="m 0,0 c 0,-96.773 -78.45,-175.222 -175.221,-175.222 -96.774,0 -175.225,78.449 -175.225,175.222 0,96.772 78.451,175.222 175.225,175.222 C -78.45,175.222 0,96.772 0,0"
             style="fill:none;stroke:#ffffff;stroke-width:2;stroke-linecap:butt;stroke-linejoin:miter;stroke-miterlimit:10;stroke-opacity:1;stroke-dasharray:none"
             id="path170"
             inkscape:connector-curvature="0" /></g></g></g></g></svg>